0
SECTION
2
ENTITIES
999
Created by Metasequoia
0
3DFACE
8
layer1
62
1
10
0.00000
20
95.10565
30
30.90170
11
-18.16356
21
95.10565
31
25.00000
12
0.00000
22
100.00000
32
0.00000
0
3DFACE
8
layer1
62
1
10
-18.16356
20
95.10565
30
25.00000
11
-29.38927
21
95.10565
31
9.54915
12
0.00000
22
100.00000
32
0.00000
0
3DFACE
8
layer1
62
1
10
-29.38927
20
95.10565
30
9.54915
11
-29.38926
21
95.10565
31
-9.54915
12
0.00000
22
100.00000
32
0.00000
0
3DFACE
8
layer1
62
1
10
-29.38926
20
95.10565
30
-9.54915
11
-18.16356
21
95.10565
31
-25.00000
12
0.00000
22
100.00000
32
0.00000
0
3DFACE
8
layer1
62
1
10
-18.16356
20
95.10565
30
-25.00000
11
0.00000
21
95.10565
31
-30.90170
12
0.00000
22
100.00000
32
0.00000
0
3DFACE
8
layer1
62
1
10
0.00000
20
95.10565
30
-30.90170
11
18.16357
21
95.10565
31
-25.00000
12
0.00000
22
100.00000
32
0.00000
0
3DFACE
8
layer1
62
1
10
18.16357
20
95.10565
30
-25.00000
11
29.38926
21
95.10565
31
-9.54915
12
0.00000
22
100.00000
32
0.00000
0
3DFACE
8
layer1
62
1
10
29.38926
20
95.10565
30
-9.54915
11
29.38926
21
95.10565
31
9.54915
12
0.00000
22
100.00000
32
0.00000
0
3DFACE
8
layer1
62
1
10
29.38926
20
95.10565
30
9.54915
11
18.16356
21
95.10565
31
25.00001
12
0.00000
22
100.00000
32
0.00000
0
3DFACE
8
layer1
62
1
10
18.16356
20
95.10565
30
25.00001
11
0.00000
21
95.10565
31
30.90170
12
0.00000
22
100.00000
32
0.00000
0
3DFACE
8
layer1
62
1
10
0.00000
20
80.90170
30
58.77853
11
-34.54915
21
80.90170
31
47.55283
12
-18.16356
22
95.10565
32
25.00000
13
0.00000
23
95.10565
33
30.90170
0
3DFACE
8
layer1
62
1
10
-34.54915
20
80.90170
30
47.55283
11
-55.90170
21
80.90170
31
18.16356
12
-29.38927
22
95.10565
32
9.54915
13
-18.16356
23
95.10565
33
25.00000
0
3DFACE
8
layer1
62
1
10
-55.90170
20
80.90170
30
18.16356
11
-55.90170
21
80.90170
31
-18.16357
12
-29.38926
22
95.10565
32
-9.54915
13
-29.38927
23
95.10565
33
9.54915
0
3DFACE
8
layer1
62
1
10
-55.90170
20
80.90170
30
-18.16357
11
-34.54915
21
80.90170
31
-47.55283
12
-18.16356
22
95.10565
32
-25.00000
13
-29.38926
23
95.10565
33
-9.54915
0
3DFACE
8
layer1
62
1
10
-34.54915
20
80.90170
30
-47.55283
11
0.00001
21
80.90170
31
-58.77853
12
0.00000
22
95.10565
32
-30.90170
13
-18.16356
23
95.10565
33
-25.00000
0
3DFACE
8
layer1
62
1
10
0.00001
20
80.90170
30
-58.77853
11
34.54916
21
80.90170
31
-47.55282
12
18.16357
22
95.10565
32
-25.00000
13
0.00000
23
95.10565
33
-30.90170
0
3DFACE
8
layer1
62
1
10
34.54916
20
80.90170
30
-47.55282
11
55.90170
21
80.90170
31
-18.16357
12
29.38926
22
95.10565
32
-9.54915
13
18.16357
23
95.10565
33
-25.00000
0
3DFACE
8
layer1
62
1
10
55.90170
20
80.90170
30
-18.16357
11
55.90170
21
80.90170
31
18.16357
12
29.38926
22
95.10565
32
9.54915
13
29.38926
23
95.10565
33
-9.54915
0
3DFACE
8
layer1
62
1
10
55.90170
20
80.90170
30
18.16357
11
34.54913
21
80.90170
31
47.55284
12
18.16356
22
95.10565
32
25.00001
13
29.38926
23
95.10565
33
9.54915
0
3DFACE
8
layer1
62
1
10
34.54913
20
80.90170
30
47.55284
11
0.00000
21
80.90170
31
58.77853
12
0.00000
22
95.10565
32
30.90170
13
18.16356
23
95.10565
33
25.00001
0
3DFACE
8
layer1
62
1
10
0.00000
20
58.77853
30
80.90170
11
-47.55283
21
58.77853
31
65.45084
12
-34.54915
22
80.90170
32
47.55283
13
0.00000
23
80.90170
33
58.77853
0
3DFACE
8
layer1
62
1
10
-47.55283
20
58.77853
30
65.45084
11
-76.94209
21
58.77853
31
25.00000
12
-55.90170
22
80.90170
32
18.16356
13
-34.54915
23
80.90170
33
47.55283
0
3DFACE
8
layer1
62
1
10
-76.94209
20
58.77853
30
25.00000
11
-76.94209
21
58.77853
31
-25.00000
12
-55.90170
22
80.90170
32
-18.16357
13
-55.90170
23
80.90170
33
18.16356
0
3DFACE
8
layer1
62
1
10
-76.94209
20
58.77853
30
-25.00000
11
-47.55282
21
58.77853
31
-65.45085
12
-34.54915
22
80.90170
32
-47.55283
13
-55.90170
23
80.90170
33
-18.16357
0
3DFACE
8
layer1
62
1
10
-47.55282
20
58.77853
30
-65.45085
11
0.00001
21
58.77853
31
-80.90170
12
0.00001
22
80.90170
32
-58.77853
13
-34.54915
23
80.90170
33
-47.55283
0
3DFACE
8
layer1
62
1
10
0.00001
20
58.77853
30
-80.90170
11
47.55283
21
58.77853
31
-65.45084
12
34.54916
22
80.90170
32
-47.55282
13
0.00001
23
80.90170
33
-58.77853
0
3DFACE
8
layer1
62
1
10
47.55283
20
58.77853
30
-65.45084
11
76.94209
21
58.77853
31
-25.00001
12
55.90170
22
80.90170
32
-18.16357
13
34.54916
23
80.90170
33
-47.55282
0
3DFACE
8
layer1
62
1
10
76.94209
20
58.77853
30
-25.00001
11
76.94209
21
58.77853
31
25.00001
12
55.90170
22
80.90170
32
18.16357
13
55.90170
23
80.90170
33
-18.16357
0
3DFACE
8
layer1
62
1
10
76.94209
20
58.77853
30
25.00001
11
47.55280
21
58.77853
31
65.45087
12
34.54913
22
80.90170
32
47.55284
13
55.90170
23
80.90170
33
18.16357
0
3DFACE
8
layer1
62
1
10
47.55280
20
58.77853
30
65.45087
11
0.00000
21
58.77853
31
80.90170
12
0.00000
22
80.90170
32
58.77853
13
34.54913
23
80.90170
33
47.55284
0
3DFACE
8
layer1
62
1
10
0.00000
20
30.90170
30
95.10565
11
-55.90170
21
30.90170
31
76.94209
12
-47.55283
22
58.77853
32
65.45084
13
0.00000
23
58.77853
33
80.90170
0
3DFACE
8
layer1
62
1
10
-55.90170
20
30.90170
30
76.94209
11
-90.45085
21
30.90170
31
29.38926
12
-76.94209
22
58.77853
32
25.00000
13
-47.55283
23
58.77853
33
65.45084
0
3DFACE
8
layer1
62
1
10
-90.45085
20
30.90170
30
29.38926
11
-90.45085
21
30.90170
31
-29.38927
12
-76.94209
22
58.77853
32
-25.00000
13
-76.94209
23
58.77853
33
25.00000
0
3DFACE
8
layer1
62
1
10
-90.45085
20
30.90170
30
-29.38927
11
-55.90170
21
30.90170
31
-76.94209
12
-47.55282
22
58.77853
32
-65.45085
13
-76.94209
23
58.77853
33
-25.00000
0
3DFACE
8
layer1
62
1
10
-55.90170
20
30.90170
30
-76.94209
11
0.00001
21
30.90170
31
-95.10565
12
0.00001
22
58.77853
32
-80.90170
13
-47.55282
23
58.77853
33
-65.45085
0
3DFACE
8
layer1
62
1
10
0.00001
20
30.90170
30
-95.10565
11
55.90171
21
30.90170
31
-76.94209
12
47.55283
22
58.77853
32
-65.45084
13
0.00001
23
58.77853
33
-80.90170
0
3DFACE
8
layer1
62
1
10
55.90171
20
30.90170
30
-76.94209
11
90.45084
21
30.90170
31
-29.38927
12
76.94209
22
58.77853
32
-25.00001
13
47.55283
23
58.77853
33
-65.45084
0
3DFACE
8
layer1
62
1
10
90.45084
20
30.90170
30
-29.38927
11
90.45084
21
30.90170
31
29.38928
12
76.94209
22
58.77853
32
25.00001
13
76.94209
23
58.77853
33
-25.00001
0
3DFACE
8
layer1
62
1
10
90.45084
20
30.90170
30
29.38928
11
55.90167
21
30.90170
31
76.94211
12
47.55280
22
58.77853
32
65.45087
13
76.94209
23
58.77853
33
25.00001
0
3DFACE
8
layer1
62
1
10
55.90167
20
30.90170
30
76.94211
11
0.00000
21
30.90170
31
95.10565
12
0.00000
22
58.77853
32
80.90170
13
47.55280
23
58.77853
33
65.45087
0
3DFACE
8
layer1
62
1
10
0.00000
20
-0.00000
30
100.00000
11
-58.77853
21
-0.00000
31
80.90170
12
-55.90170
22
30.90170
32
76.94209
13
0.00000
23
30.90170
33
95.10565
0
3DFACE
8
layer1
62
1
10
-58.77853
20
-0.00000
30
80.90170
11
-95.10565
21
-0.00000
31
30.90170
12
-90.45085
22
30.90170
32
29.38926
13
-55.90170
23
30.90170
33
76.94209
0
3DFACE
8
layer1
62
1
10
-95.10565
20
-0.00000
30
30.90170
11
-95.10565
21
-0.00000
31
-30.90170
12
-90.45085
22
30.90170
32
-29.38927
13
-90.45085
23
30.90170
33
29.38926
0
3DFACE
8
layer1
62
1
10
-95.10565
20
-0.00000
30
-30.90170
11
-58.77852
21
-0.00000
31
-80.90170
12
-55.90170
22
30.90170
32
-76.94209
13
-90.45085
23
30.90170
33
-29.38927
0
3DFACE
8
layer1
62
1
10
-58.77852
20
-0.00000
30
-80.90170
11
0.00001
21
-0.00000
31
-100.00000
12
0.00001
22
30.90170
32
-95.10565
13
-55.90170
23
30.90170
33
-76.94209
0
3DFACE
8
layer1
62
1
10
0.00001
20
-0.00000
30
-100.00000
11
58.77854
21
-0.00000
31
-80.90170
12
55.90171
22
30.90170
32
-76.94209
13
0.00001
23
30.90170
33
-95.10565
0
3DFACE
8
layer1
62
1
10
58.77854
20
-0.00000
30
-80.90170
11
95.10565
21
-0.00000
31
-30.90171
12
90.45084
22
30.90170
32
-29.38927
13
55.90171
23
30.90170
33
-76.94209
0
3DFACE
8
layer1
62
1
10
95.10565
20
-0.00000
30
-30.90171
11
95.10565
21
-0.00000
31
30.90171
12
90.45084
22
30.90170
32
29.38928
13
90.45084
23
30.90170
33
-29.38927
0
3DFACE
8
layer1
62
1
10
95.10565
20
-0.00000
30
30.90171
11
58.77850
21
-0.00000
31
80.90173
12
55.90167
22
30.90170
32
76.94211
13
90.45084
23
30.90170
33
29.38928
0
3DFACE
8
layer1
62
1
10
58.77850
20
-0.00000
30
80.90173
11
0.00000
21
-0.00000
31
100.00000
12
0.00000
22
30.90170
32
95.10565
13
55.90167
23
30.90170
33
76.94211
0
3DFACE
8
layer1
62
1
10
0.00000
20
-30.90170
30
95.10565
11
-55.90170
21
-30.90170
31
76.94209
12
-58.77853
22
-0.00000
32
80.90170
13
0.00000
23
-0.00000
33
100.00000
0
3DFACE
8
layer1
62
1
10
-55.90170
20
-30.90170
30
76.94209
11
-90.45084
21
-30.90170
31
29.38926
12
-95.10565
22
-0.00000
32
30.90170
13
-58.77853
23
-0.00000
33
80.90170
0
3DFACE
8
layer1
62
1
10
-90.45084
20
-30.90170
30
29.38926
11
-90.45084
21
-30.90170
31
-29.38927
12
-95.10565
22
-0.00000
32
-30.90170
13
-95.10565
23
-0.00000
33
30.90170
0
3DFACE
8
layer1
62
1
10
-90.45084
20
-30.90170
30
-29.38927
11
-55.90170
21
-30.90170
31
-76.94209
12
-58.77852
22
-0.00000
32
-80.90170
13
-95.10565
23
-0.00000
33
-30.90170
0
3DFACE
8
layer1
62
1
10
-55.90170
20
-30.90170
30
-76.94209
11
0.00001
21
-30.90170
31
-95.10565
12
0.00001
22
-0.00000
32
-100.00000
13
-58.77852
23
-0.00000
33
-80.90170
0
3DFACE
8
layer1
62
1
10
0.00001
20
-30.90170
30
-95.10565
11
55.90171
21
-30.90170
31
-76.94208
12
58.77854
22
-0.00000
32
-80.90170
13
0.00001
23
-0.00000
33
-100.00000
0
3DFACE
8
layer1
62
1
10
55.90171
20
-30.90170
30
-76.94208
11
90.45084
21
-30.90170
31
-29.38927
12
95.10565
22
-0.00000
32
-30.90171
13
58.77854
23
-0.00000
33
-80.90170
0
3DFACE
8
layer1
62
1
10
90.45084
20
-30.90170
30
-29.38927
11
90.45084
21
-30.90170
31
29.38927
12
95.10565
22
-0.00000
32
30.90171
13
95.10565
23
-0.00000
33
-30.90171
0
3DFACE
8
layer1
62
1
10
90.45084
20
-30.90170
30
29.38927
11
55.90166
21
-30.90170
31
76.94211
12
58.77850
22
-0.00000
32
80.90173
13
95.10565
23
-0.00000
33
30.90171
0
3DFACE
8
layer1
62
1
10
55.90166
20
-30.90170
30
76.94211
11
0.00000
21
-30.90170
31
95.10565
12
0.00000
22
-0.00000
32
100.00000
13
58.77850
23
-0.00000
33
80.90173
0
3DFACE
8
layer1
62
1
10
0.00000
20
-58.77852
30
80.90170
11
-47.55283
21
-58.77852
31
65.45084
12
-55.90170
22
-30.90170
32
76.94209
13
0.00000
23
-30.90170
33
95.10565
0
3DFACE
8
layer1
62
1
10
-47.55283
20
-58.77852
30
65.45084
11
-76.94209
21
-58.77852
31
25.00000
12
-90.45084
22
-30.90170
32
29.38926
13
-55.90170
23
-30.90170
33
76.94209
0
3DFACE
8
layer1
62
1
10
-76.94209
20
-58.77852
30
25.00000
11
-76.94209
21
-58.77852
31
-25.00000
12
-90.45084
22
-30.90170
32
-29.38927
13
-90.45084
23
-30.90170
33
29.38926
0
3DFACE
8
layer1
62
1
10
-76.94209
20
-58.77852
30
-25.00000
11
-47.55282
21
-58.77852
31
-65.45085
12
-55.90170
22
-30.90170
32
-76.94209
13
-90.45084
23
-30.90170
33
-29.38927
0
3DFACE
8
layer1
62
1
10
-47.55282
20
-58.77852
30
-65.45085
11
0.00001
21
-58.77852
31
-80.90170
12
0.00001
22
-30.90170
32
-95.10565
13
-55.90170
23
-30.90170
33
-76.94209
0
3DFACE
8
layer1
62
1
10
0.00001
20
-58.77852
30
-80.90170
11
47.55283
21
-58.77852
31
-65.45084
12
55.90171
22
-30.90170
32
-76.94208
13
0.00001
23
-30.90170
33
-95.10565
0
3DFACE
8
layer1
62
1
10
47.55283
20
-58.77852
30
-65.45084
11
76.94209
21
-58.77852
31
-25.00001
12
90.45084
22
-30.90170
32
-29.38927
13
55.90171
23
-30.90170
33
-76.94208
0
3DFACE
8
layer1
62
1
10
76.94209
20
-58.77852
30
-25.00001
11
76.94209
21
-58.77852
31
25.00001
12
90.45084
22
-30.90170
32
29.38927
13
90.45084
23
-30.90170
33
-29.38927
0
3DFACE
8
layer1
62
1
10
76.94209
20
-58.77852
30
25.00001
11
47.55280
21
-58.77852
31
65.45087
12
55.90166
22
-30.90170
32
76.94211
13
90.45084
23
-30.90170
33
29.38927
0
3DFACE
8
layer1
62
1
10
47.55280
20
-58.77852
30
65.45087
11
0.00000
21
-58.77852
31
80.90170
12
0.00000
22
-30.90170
32
95.10565
13
55.90166
23
-30.90170
33
76.94211
0
3DFACE
8
layer1
62
1
10
0.00000
20
-80.90170
30
58.77852
11
-34.54915
21
-80.90170
31
47.55282
12
-47.55283
22
-58.77852
32
65.45084
13
0.00000
23
-58.77852
33
80.90170
0
3DFACE
8
layer1
62
1
10
-34.54915
20
-80.90170
30
47.55282
11
-55.90170
21
-80.90170
31
18.16356
12
-76.94209
22
-58.77852
32
25.00000
13
-47.55283
23
-58.77852
33
65.45084
0
3DFACE
8
layer1
62
1
10
-55.90170
20
-80.90170
30
18.16356
11
-55.90170
21
-80.90170
31
-18.16356
12
-76.94209
22
-58.77852
32
-25.00000
13
-76.94209
23
-58.77852
33
25.00000
0
3DFACE
8
layer1
62
1
10
-55.90170
20
-80.90170
30
-18.16356
11
-34.54914
21
-80.90170
31
-47.55283
12
-47.55282
22
-58.77852
32
-65.45085
13
-76.94209
23
-58.77852
33
-25.00000
0
3DFACE
8
layer1
62
1
10
-34.54914
20
-80.90170
30
-47.55283
11
0.00001
21
-80.90170
31
-58.77852
12
0.00001
22
-58.77852
32
-80.90170
13
-47.55282
23
-58.77852
33
-65.45085
0
3DFACE
8
layer1
62
1
10
0.00001
20
-80.90170
30
-58.77852
11
34.54915
21
-80.90170
31
-47.55282
12
47.55283
22
-58.77852
32
-65.45084
13
0.00001
23
-58.77852
33
-80.90170
0
3DFACE
8
layer1
62
1
10
34.54915
20
-80.90170
30
-47.55282
11
55.90169
21
-80.90170
31
-18.16357
12
76.94209
22
-58.77852
32
-25.00001
13
47.55283
23
-58.77852
33
-65.45084
0
3DFACE
8
layer1
62
1
10
55.90169
20
-80.90170
30
-18.16357
11
55.90169
21
-80.90170
31
18.16357
12
76.94209
22
-58.77852
32
25.00001
13
76.94209
23
-58.77852
33
-25.00001
0
3DFACE
8
layer1
62
1
10
55.90169
20
-80.90170
30
18.16357
11
34.54913
21
-80.90170
31
47.55283
12
47.55280
22
-58.77852
32
65.45087
13
76.94209
23
-58.77852
33
25.00001
0
3DFACE
8
layer1
62
1
10
34.54913
20
-80.90170
30
47.55283
11
0.00000
21
-80.90170
31
58.77852
12
0.00000
22
-58.77852
32
80.90170
13
47.55280
23
-58.77852
33
65.45087
0
3DFACE
8
layer1
62
1
10
0.00000
20
-95.10566
30
30.90168
11
-18.16355
21
-95.10566
31
24.99998
12
-34.54915
22
-80.90170
32
47.55282
13
0.00000
23
-80.90170
33
58.77852
0
3DFACE
8
layer1
62
1
10
-18.16355
20
-95.10566
30
24.99998
11
-29.38924
21
-95.10566
31
9.54914
12
-55.90170
22
-80.90170
32
18.16356
13
-34.54915
23
-80.90170
33
47.55282
0
3DFACE
8
layer1
62
1
10
-29.38924
20
-95.10566
30
9.54914
11
-29.38924
21
-95.10566
31
-9.54915
12
-55.90170
22
-80.90170
32
-18.16356
13
-55.90170
23
-80.90170
33
18.16356
0
3DFACE
8
layer1
62
1
10
-29.38924
20
-95.10566
30
-9.54915
11
-18.16355
21
-95.10566
31
-24.99998
12
-34.54914
22
-80.90170
32
-47.55283
13
-55.90170
23
-80.90170
33
-18.16356
0
3DFACE
8
layer1
62
1
10
-18.16355
20
-95.10566
30
-24.99998
11
0.00000
21
-95.10566
31
-30.90168
12
0.00001
22
-80.90170
32
-58.77852
13
-34.54914
23
-80.90170
33
-47.55283
0
3DFACE
8
layer1
62
1
10
0.00000
20
-95.10566
30
-30.90168
11
18.16356
21
-95.10566
31
-24.99998
12
34.54915
22
-80.90170
32
-47.55282
13
0.00001
23
-80.90170
33
-58.77852
0
3DFACE
8
layer1
62
1
10
18.16356
20
-95.10566
30
-24.99998
11
29.38924
21
-95.10566
31
-9.54915
12
55.90169
22
-80.90170
32
-18.16357
13
34.54915
23
-80.90170
33
-47.55282
0
3DFACE
8
layer1
62
1
10
29.38924
20
-95.10566
30
-9.54915
11
29.38924
21
-95.10566
31
9.54915
12
55.90169
22
-80.90170
32
18.16357
13
55.90169
23
-80.90170
33
-18.16357
0
3DFACE
8
layer1
62
1
10
29.38924
20
-95.10566
30
9.54915
11
18.16354
21
-95.10566
31
24.99999
12
34.54913
22
-80.90170
32
47.55283
13
55.90169
23
-80.90170
33
18.16357
0
3DFACE
8
layer1
62
1
10
18.16354
20
-95.10566
30
24.99999
11
0.00000
21
-95.10566
31
30.90168
12
0.00000
22
-80.90170
32
58.77852
13
34.54913
23
-80.90170
33
47.55283
0
3DFACE
8
layer1
62
1
10
0.00000
20
-100.00000
30
0.00000
11
-18.16355
21
-95.10566
31
24.99998
12
0.00000
22
-95.10566
32
30.90168
0
3DFACE
8
layer1
62
1
10
0.00000
20
-100.00000
30
0.00000
11
-29.38924
21
-95.10566
31
9.54914
12
-18.16355
22
-95.10566
32
24.99998
0
3DFACE
8
layer1
62
1
10
0.00000
20
-100.00000
30
0.00000
11
-29.38924
21
-95.10566
31
-9.54915
12
-29.38924
22
-95.10566
32
9.54914
0
3DFACE
8
layer1
62
1
10
0.00000
20
-100.00000
30
0.00000
11
-18.16355
21
-95.10566
31
-24.99998
12
-29.38924
22
-95.10566
32
-9.54915
0
3DFACE
8
layer1
62
1
10
0.00000
20
-100.00000
30
0.00000
11
0.00000
21
-95.10566
31
-30.90168
12
-18.16355
22
-95.10566
32
-24.99998
0
3DFACE
8
layer1
62
1
10
0.00000
20
-100.00000
30
0.00000
11
18.16356
21
-95.10566
31
-24.99998
12
0.00000
22
-95.10566
32
-30.90168
0
3DFACE
8
layer1
62
1
10
0.00000
20
-100.00000
30
0.00000
11
29.38924
21
-95.10566
31
-9.54915
12
18.16356
22
-95.10566
32
-24.99998
0
3DFACE
8
layer1
62
1
10
0.00000
20
-100.00000
30
0.00000
11
29.38924
21
-95.10566
31
9.54915
12
29.38924
22
-95.10566
32
-9.54915
0
3DFACE
8
layer1
62
1
10
0.00000
20
-100.00000
30
0.00000
11
18.16354
21
-95.10566
31
24.99999
12
29.38924
22
-95.10566
32
9.54915
0
3DFACE
8
layer1
62
1
10
0.00000
20
-100.00000
30
0.00000
11
0.00000
21
-95.10566
31
30.90168
12
18.16354
22
-95.10566
32
24.99999
0
ENDSEC
0
EOF
